<svg width="14" height="24" viewBox="0 0 14 24" fill="none" xmlns="http://www.w3.org/2000/svg">
<path d="M12.6155 13.1169L11.872 13.0183V13.0183L12.6155 13.1169ZM12.554 13.79L11.805 13.7521L12.554 13.79ZM12.5369 14.1283L11.7879 14.0904L12.5369 14.1283ZM12.5198 14.4666L13.2689 14.5044L12.5198 14.4666ZM12.4368 15.1371L13.1725 15.2831L12.4368 15.1371ZM12.3709 15.4693L11.6352 15.3233L12.3709 15.4693ZM12.305 15.8014L13.0406 15.9474L12.305 15.8014ZM12.1341 16.4553L12.8471 16.688L12.1341 16.4553ZM11.9241 17.0988L11.2111 16.8661L11.9241 17.0988ZM11.6971 17.7342L10.9981 17.4622L11.6971 17.7342ZM11.453 18.3616L12.152 18.6335L11.453 18.3616ZM11.1998 18.9861L11.8908 19.2777L11.1998 18.9861ZM10.9375 19.6076L10.2465 19.3159L10.9375 19.6076ZM10.5982 20.1826L11.1873 20.6467L10.5982 20.1826ZM10.39 20.4468L9.80084 19.9827L10.39 20.4468ZM10.1818 20.7111L9.59268 20.247L10.1818 20.7111ZM9.73961 21.2196L9.1981 20.7007L9.73961 21.2196ZM9.50554 21.4639L10.0471 21.9828L9.50554 21.4639ZM9.27147 21.7082L9.81298 22.2271L9.27147 21.7082ZM8.72023 22.0689L8.97879 22.7729L8.72023 22.0689ZM8.40307 22.1854L8.14451 21.4814L8.40307 22.1854ZM8.0859 22.3019L7.82735 21.5979L8.0859 22.3019ZM7.43744 22.4478L7.371 21.7008L7.43744 22.4478ZM6.77484 22.5068L6.84129 23.2538L6.77484 22.5068ZM6.11504 22.4792L6.24324 21.7403L6.11504 22.4792ZM5.45804 22.3653L5.32984 23.1042L5.45804 22.3653ZM4.2103 21.9011L3.90658 22.5869L4.2103 21.9011ZM3.64952 21.5428L3.15561 22.1072L3.64952 21.5428ZM3.14078 21.0976L2.64687 21.662L3.14078 21.0976ZM2.69667 20.5945L3.31791 20.1743L2.69667 20.5945ZM2.31719 20.0334L1.69595 20.4536L2.31719 20.0334ZM1.99034 19.4443L2.67574 19.1398L1.99034 19.4443ZM1.85324 19.1357L2.53864 18.8312L1.85324 19.1357ZM1.71613 18.8271L1.03073 19.1316L1.71613 18.8271ZM1.4641 18.1998L0.758573 18.4543L1.4641 18.1998ZM1.23425 17.5625L0.528722 17.8169L1.23425 17.5625ZM1.06409 16.9095L1.80406 16.7872L1.06409 16.9095ZM1.00887 16.5752L0.268896 16.6974L1.00887 16.5752ZM0.881598 15.5692L1.63067 15.5319L0.881598 15.5692ZM0.864788 15.2318L0.115717 15.2692L0.864788 15.2318ZM0.847977 14.8945L0.0989062 14.9318L0.847977 14.8945ZM0.809702 14.2211L0.061227 14.2689L0.809702 14.2211ZM0.766773 13.549L1.51525 13.5012L0.766773 13.549ZM0.763597 12.2017L0.0137196 12.1881L0.763597 12.2017ZM0.776147 10.8483L0.0261622 10.8435L0.776147 10.8483ZM0.828464 10.175L0.0867599 10.0638L0.828464 10.175ZM1.02982 8.83699L0.28833 8.7243L1.02982 8.83699ZM1.13152 8.16782L0.390035 8.05513L1.13152 8.16782ZM1.53209 6.87813L0.827821 6.62025L1.53209 6.87813ZM1.72857 6.23043L0.999716 6.05359L1.72857 6.23043ZM2.27657 4.63994L1.6089 4.2983L2.27657 4.63994ZM2.43071 4.33869L3.09838 4.68033L2.43071 4.33869ZM2.92721 3.45224L2.27985 3.07352L2.92721 3.45224ZM3.52609 2.64632L3.03695 2.07778L3.52609 2.64632ZM3.78262 2.42562L4.27176 2.99416L3.78262 2.42562ZM4.03915 2.20492L3.55001 1.63637L4.03915 2.20492ZM5.73197 1.15293L5.46002 0.453977L5.73197 1.15293ZM6.04596 1.03076L6.31792 1.72972L6.04596 1.03076ZM9.62131 1.3119L9.30809 1.99336L9.62131 1.3119ZM10.2325 1.59283L9.9193 2.27429L10.2325 1.59283ZM10.7613 1.98826L11.3256 1.49424L10.7613 1.98826ZM10.9845 2.24323L10.4202 2.73725L10.9845 2.24323ZM11.2078 2.4982L10.6434 2.99222L11.2078 2.4982ZM11.5861 3.05362L12.2525 2.7096L11.5861 3.05362ZM11.8962 3.65453L11.2298 3.99855L11.8962 3.65453ZM12.1429 4.27924L11.4211 4.48307L12.1429 4.27924ZM12.326 4.92776L13.0478 4.72393L12.326 4.92776ZM12.4893 5.58171L11.7565 5.74111L12.4893 5.58171ZM12.6327 6.2411L13.3656 6.0817L12.6327 6.2411ZM12.7275 6.90773L11.9793 6.95901L12.7275 6.90773ZM12.7506 7.24466L12.0024 7.29594L12.7506 7.24466ZM12.7737 7.58159L12.0255 7.63287L12.7737 7.58159ZM12.8263 8.25541L13.5734 8.19004L12.8263 8.25541ZM12.8558 8.5923L12.1086 8.65767L12.8558 8.5923ZM12.8852 8.92919L13.6324 8.86382L12.8852 8.92919ZM12.9112 9.6042L12.1612 9.59642L12.9112 9.6042ZM12.9077 9.94232L13.6577 9.9501L12.9077 9.94232ZM12.9042 10.2804L12.1542 10.2727L12.9042 10.2804ZM12.8659 10.955L12.1199 10.8778L12.8659 10.955ZM12.7582 12.0013L13.5054 12.0661L12.7582 12.0013ZM12.755 12.0384L12.0078 11.9736L12.755 12.0384ZM12.7518 12.0755L12.0046 12.0107L12.7518 12.0755ZM12.7042 12.4473L13.4477 12.5459V12.5459L12.7042 12.4473ZM12.6598 12.7821L11.9163 12.6836L11.872 13.0183L12.6155 13.1169L13.359 13.2154L13.4033 12.8806L12.6598 12.7821ZM12.6155 13.1169L11.872 13.0183C11.8397 13.2617 11.8174 13.5063 11.805 13.7521L12.554 13.79L13.3031 13.8278C13.3134 13.6225 13.3321 13.4184 13.359 13.2154L12.6155 13.1169ZM12.554 13.79L11.805 13.7521L11.7879 14.0904L12.5369 14.1283L13.286 14.1661L13.3031 13.8278L12.554 13.79ZM12.5369 14.1283L11.7879 14.0904L11.7708 14.4287L12.5198 14.4666L13.2689 14.5044L13.286 14.1661L12.5369 14.1283ZM12.5198 14.4666L11.7708 14.4287C11.7612 14.6179 11.738 14.8053 11.7012 14.9911L12.4368 15.1371L13.1725 15.2831C13.2235 15.0259 13.2556 14.7663 13.2689 14.5044L12.5198 14.4666ZM12.4368 15.1371L11.7012 14.9911L11.6352 15.3233L12.3709 15.4693L13.1065 15.6152L13.1725 15.2831L12.4368 15.1371ZM12.3709 15.4693L11.6352 15.3233L11.5693 15.6554L12.305 15.8014L13.0406 15.9474L13.1065 15.6152L12.3709 15.4693ZM12.305 15.8014L11.5693 15.6554C11.5312 15.8476 11.4818 16.0367 11.4211 16.2227L12.1341 16.4553L12.8471 16.688C12.9263 16.4451 12.9908 16.1982 13.0406 15.9474L12.305 15.8014ZM12.1341 16.4553L11.4211 16.2227L11.3161 16.5444L12.0291 16.7771L12.7421 17.0097L12.8471 16.688L12.1341 16.4553ZM12.0291 16.7771L11.3161 16.5444L11.2111 16.8661L11.9241 17.0988L12.6371 17.3314L12.7421 17.0097L12.0291 16.7771ZM11.9241 17.0988L11.2111 16.8661C11.1454 17.0674 11.0744 17.2661 10.9981 17.4622L11.6971 17.7342L12.3961 18.0061C12.4825 17.784 12.5629 17.559 12.6371 17.3314L11.9241 17.0988ZM11.6971 17.7342L10.9981 17.4622L10.8761 17.776L11.5751 18.0479L12.274 18.3198L12.3961 18.0061L11.6971 17.7342ZM11.5751 18.0479L10.8761 17.776L10.754 18.0897L11.453 18.3616L12.152 18.6335L12.274 18.3198L11.5751 18.0479ZM11.453 18.3616L10.754 18.0897C10.6753 18.2922 10.5935 18.4938 10.5088 18.6944L11.1998 18.9861L11.8908 19.2777C11.981 19.064 12.068 18.8493 12.152 18.6335L11.453 18.3616ZM11.1998 18.9861L10.5088 18.6944L10.3777 19.0052L11.0686 19.2968L11.7596 19.5885L11.8908 19.2777L11.1998 18.9861ZM11.0686 19.2968L10.3777 19.0052L10.2465 19.3159L10.9375 19.6076L11.6285 19.8992L11.7596 19.5885L11.0686 19.2968ZM10.9375 19.6076L10.2465 19.3159C10.1851 19.4615 10.1062 19.5951 10.009 19.7185L10.5982 20.1826L11.1873 20.6467C11.3677 20.4177 11.515 20.168 11.6285 19.8992L10.9375 19.6076ZM10.5982 20.1826L10.009 19.7185L9.80084 19.9827L10.39 20.4468L10.9792 20.9109L11.1873 20.6467L10.5982 20.1826ZM10.39 20.4468L9.80084 19.9827L9.59268 20.247L10.1818 20.7111L10.771 21.1752L10.9792 20.9109L10.39 20.4468ZM10.1818 20.7111L9.59268 20.247C9.46899 20.404 9.33749 20.5552 9.1981 20.7007L9.73961 21.2196L10.2811 21.7385C10.4538 21.5583 10.6172 21.3705 10.771 21.1752L10.1818 20.7111ZM9.73961 21.2196L9.1981 20.7007L8.96403 20.945L9.50554 21.4639L10.0471 21.9828L10.2811 21.7385L9.73961 21.2196ZM9.50554 21.4639L8.96403 20.945L8.72995 21.1893L9.27147 21.7082L9.81298 22.2271L10.0471 21.9828L9.50554 21.4639ZM9.27147 21.7082L8.72995 21.1893C8.65279 21.2698 8.56579 21.3267 8.46167 21.3649L8.72023 22.0689L8.97879 22.7729C9.29756 22.6559 9.57804 22.4722 9.81298 22.2271L9.27147 21.7082ZM8.72023 22.0689L8.46167 21.3649L8.14451 21.4814L8.40307 22.1854L8.66163 22.8894L8.97879 22.7729L8.72023 22.0689ZM8.40307 22.1854L8.14451 21.4814L7.82735 21.5979L8.0859 22.3019L8.34446 23.0059L8.66163 22.8894L8.40307 22.1854ZM8.0859 22.3019L7.82735 21.5979C7.67678 21.6532 7.52517 21.6871 7.371 21.7008L7.43744 22.4478L7.50389 23.1949C7.79144 23.1693 8.07214 23.1059 8.34446 23.0059L8.0859 22.3019ZM7.43744 22.4478L7.371 21.7008L7.0397 21.7302L7.10614 22.4773L7.17259 23.2243L7.50389 23.1949L7.43744 22.4478ZM7.10614 22.4773L7.0397 21.7302L6.7084 21.7597L6.77484 22.5068L6.84129 23.2538L7.17259 23.2243L7.10614 22.4773ZM6.77484 22.5068L6.7084 21.7597C6.55265 21.7736 6.39815 21.7671 6.24324 21.7403L6.11504 22.4792L5.98684 23.2182C6.26994 23.2673 6.5553 23.2792 6.84129 23.2538L6.77484 22.5068ZM6.11504 22.4792L6.24324 21.7403L5.91474 21.6833L5.78654 22.4222L5.65834 23.1612L5.98684 23.2182L6.11504 22.4792ZM5.78654 22.4222L5.91474 21.6833L5.58624 21.6263L5.45804 22.3653L5.32984 23.1042L5.65834 23.1612L5.78654 22.4222ZM5.45804 22.3653L5.58624 21.6263C5.42802 21.5988 5.2753 21.5526 5.12685 21.4868L4.82313 22.1726L4.51941 22.8583C4.7795 22.9735 5.05007 23.0557 5.32984 23.1042L5.45804 22.3653ZM4.82313 22.1726L5.12685 21.4868L4.82043 21.3511L4.51672 22.0368L4.213 22.7226L4.51941 22.8583L4.82313 22.1726ZM4.51672 22.0368L4.82043 21.3511L4.51402 21.2154L4.2103 21.9011L3.90658 22.5869L4.213 22.7226L4.51672 22.0368ZM4.2103 21.9011L4.51402 21.2154C4.3795 21.1558 4.25659 21.0774 4.14343 20.9784L3.64952 21.5428L3.15561 22.1072C3.3816 22.305 3.63255 22.4655 3.90658 22.5869L4.2103 21.9011ZM3.64952 21.5428L4.14343 20.9784L3.88906 20.7558L3.39515 21.3202L2.90124 21.8846L3.15561 22.1072L3.64952 21.5428ZM3.39515 21.3202L3.88906 20.7558L3.63469 20.5332L3.14078 21.0976L2.64687 21.662L2.90124 21.8846L3.39515 21.3202ZM3.14078 21.0976L3.63469 20.5332C3.51367 20.4273 3.4084 20.3081 3.31791 20.1743L2.69667 20.5945L2.07543 21.0147C2.23793 21.2549 2.42874 21.4711 2.64687 21.662L3.14078 21.0976ZM2.69667 20.5945L3.31791 20.1743L3.12817 19.8938L2.50693 20.314L1.88569 20.7342L2.07543 21.0147L2.69667 20.5945ZM2.50693 20.314L3.12817 19.8938L2.93843 19.6133L2.31719 20.0334L1.69595 20.4536L1.88569 20.7342L2.50693 20.314ZM2.31719 20.0334L2.93843 19.6133C2.83662 19.4627 2.74916 19.305 2.67574 19.1398L1.99034 19.4443L1.30495 19.7488C1.41434 19.9951 1.54478 20.2301 1.69595 20.4536L2.31719 20.0334ZM1.99034 19.4443L2.67574 19.1398L2.53864 18.8312L1.85324 19.1357L1.16784 19.4402L1.30495 19.7488L1.99034 19.4443ZM1.85324 19.1357L2.53864 18.8312L2.40153 18.5226L1.71613 18.8271L1.03073 19.1316L1.16784 19.4402L1.85324 19.1357ZM1.71613 18.8271L2.40153 18.5226C2.31746 18.3334 2.24016 18.141 2.16963 17.9454L1.4641 18.1998L0.758573 18.4543C0.841277 18.6836 0.931997 18.9094 1.03073 19.1316L1.71613 18.8271ZM1.4641 18.1998L2.16963 17.9454L2.0547 17.6267L1.34917 17.8812L0.643648 18.1356L0.758573 18.4543L1.4641 18.1998ZM1.34917 17.8812L2.0547 17.6267L1.93977 17.308L1.23425 17.5625L0.528722 17.8169L0.643648 18.1356L1.34917 17.8812ZM1.23425 17.5625L1.93977 17.308C1.87864 17.1385 1.83345 16.9651 1.80406 16.7872L1.06409 16.9095L0.324125 17.0317C0.368379 17.2996 0.436625 17.5615 0.528722 17.8169L1.23425 17.5625ZM1.06409 16.9095L1.80406 16.7872L1.74884 16.4529L1.00887 16.5752L0.268896 16.6974L0.324125 17.0317L1.06409 16.9095ZM1.00887 16.5752L1.74884 16.4529L1.69361 16.1186L0.953638 16.2409L0.213668 16.3631L0.268896 16.6974L1.00887 16.5752ZM0.953638 16.2409L1.69361 16.1186C1.66142 15.9238 1.64045 15.7283 1.63067 15.5319L0.881598 15.5692L0.132528 15.6065C0.145157 15.86 0.172219 16.1122 0.213668 16.3631L0.953638 16.2409ZM0.881598 15.5692L1.63067 15.5319L1.61386 15.1945L0.864788 15.2318L0.115717 15.2692L0.132528 15.6065L0.881598 15.5692ZM0.864788 15.2318L1.61386 15.1945L1.59705 14.8571L0.847977 14.8945L0.0989062 14.9318L0.115717 15.2692L0.864788 15.2318ZM0.847977 14.8945L1.59705 14.8571C1.58567 14.6287 1.57271 14.4008 1.55818 14.1733L0.809702 14.2211L0.061227 14.2689C0.0753127 14.4894 0.0878726 14.7104 0.0989062 14.9318L0.847977 14.8945ZM0.809702 14.2211L1.55818 14.1733L1.53671 13.8372L0.788237 13.885L0.0397627 13.9329L0.061227 14.2689L0.809702 14.2211ZM0.788237 13.885L1.53671 13.8372L1.51525 13.5012L0.766773 13.549L0.0182983 13.5968L0.0397627 13.9329L0.788237 13.885ZM0.766773 13.549L1.51525 13.5012C1.50224 13.2976 1.49759 13.0937 1.50128 12.8895L0.751405 12.8759L0.00152725 12.8623C-0.00290659 13.1075 0.00268197 13.3524 0.0182983 13.5968L0.766773 13.549ZM0.751405 12.8759L1.50128 12.8895L1.50738 12.5524L0.757501 12.5388L0.00762347 12.5252L0.00152725 12.8623L0.751405 12.8759ZM0.757501 12.5388L1.50738 12.5524L1.51347 12.2152L0.763597 12.2017L0.0137196 12.1881L0.00762347 12.5252L0.757501 12.5388ZM0.763597 12.2017L1.51347 12.2152C1.51759 11.9876 1.52038 11.7593 1.52183 11.5306L0.771845 11.5258L0.0218597 11.5211C0.020444 11.744 0.0177305 11.9663 0.0137196 12.1881L0.763597 12.2017ZM0.771845 11.5258L1.52183 11.5306L1.52398 11.1918L0.773996 11.1871L0.024011 11.1823L0.0218597 11.5211L0.771845 11.5258ZM0.773996 11.1871L1.52398 11.1918L1.52613 10.8531L0.776147 10.8483L0.0261622 10.8435L0.024011 11.1823L0.773996 11.1871ZM0.776147 10.8483L1.52613 10.8531C1.52734 10.6628 1.54202 10.474 1.57017 10.2863L0.828464 10.175L0.0867599 10.0638C0.0480205 10.3221 0.0278224 10.5821 0.0261622 10.8435L0.776147 10.8483ZM0.828464 10.175L1.57017 10.2863L1.62034 9.9518L0.878631 9.84056L0.136926 9.72932L0.0867599 10.0638L0.828464 10.175ZM0.878631 9.84056L1.62034 9.9518L1.6705 9.61731L0.928797 9.50607L0.187092 9.39483L0.136926 9.72932L0.878631 9.84056ZM0.928797 9.50607L1.6705 9.61731C1.70387 9.3948 1.73747 9.17226 1.7713 8.94969L1.02982 8.83699L0.28833 8.7243C0.254355 8.94784 0.220609 9.17135 0.187092 9.39483L0.928797 9.50607ZM1.02982 8.83699L1.7713 8.94969L1.82215 8.6151L1.08067 8.50241L0.339183 8.38971L0.28833 8.7243L1.02982 8.83699ZM1.08067 8.50241L1.82215 8.6151L1.873 8.28052L1.13152 8.16782L0.390035 8.05513L0.339183 8.38971L1.08067 8.50241ZM1.13152 8.16782L1.873 8.28052C1.89937 8.10706 1.94269 7.93804 2.00322 7.77274L1.29895 7.51487L0.594673 7.25699C0.499768 7.51618 0.431476 7.78246 0.390035 8.05513L1.13152 8.16782ZM1.29895 7.51487L2.00322 7.77274L2.11979 7.45438L1.41552 7.1965L0.711247 6.93862L0.594673 7.25699L1.29895 7.51487ZM1.41552 7.1965L2.11979 7.45438L2.23637 7.13601L1.53209 6.87813L0.827821 6.62025L0.711247 6.93862L1.41552 7.1965ZM1.53209 6.87813L2.23637 7.13601C2.32379 6.89725 2.39749 6.65429 2.45743 6.40727L1.72857 6.23043L0.999716 6.05359C0.953111 6.24568 0.895827 6.43453 0.827821 6.62025L1.53209 6.87813ZM1.72857 6.23043L2.45743 6.40727L2.53733 6.07793L1.80847 5.9011L1.07962 5.72426L0.999716 6.05359L1.72857 6.23043ZM1.80847 5.9011L2.53733 6.07793L2.61723 5.7486L1.88838 5.57176L1.15952 5.39493L1.07962 5.72426L1.80847 5.9011ZM1.88838 5.57176L2.61723 5.7486C2.65666 5.5861 2.71416 5.43123 2.7901 5.28282L2.12243 4.94119L1.45475 4.59955C1.32517 4.8528 1.22664 5.11831 1.15952 5.39493L1.88838 5.57176ZM2.12243 4.94119L2.7901 5.28282L2.94424 4.98158L2.27657 4.63994L1.6089 4.2983L1.45475 4.59955L2.12243 4.94119ZM2.27657 4.63994L2.94424 4.98158L3.09838 4.68033L2.43071 4.33869L1.76304 3.99706L1.6089 4.2983L2.27657 4.63994ZM2.43071 4.33869L3.09838 4.68033C3.19471 4.49207 3.29638 4.30648 3.40339 4.12355L2.75603 3.74484L2.10867 3.36613C1.98745 3.57334 1.87223 3.78366 1.76304 3.99706L2.43071 4.33869ZM2.75603 3.74484L3.40339 4.12355L3.57457 3.83095L2.92721 3.45224L2.27985 3.07352L2.10867 3.36613L2.75603 3.74484ZM2.92721 3.45224L3.57457 3.83095L3.74575 3.53834L3.09839 3.15963L2.45103 2.78092L2.27985 3.07352L2.92721 3.45224ZM3.09839 3.15963L3.74575 3.53834C3.81806 3.41473 3.9072 3.30781 4.01523 3.21486L3.52609 2.64632L3.03695 2.07778C2.80295 2.2791 2.60695 2.51438 2.45103 2.78092L3.09839 3.15963ZM3.52609 2.64632L4.01523 3.21486L4.27176 2.99416L3.78262 2.42562L3.29348 1.85708L3.03695 2.07778L3.52609 2.64632ZM3.78262 2.42562L4.27176 2.99416L4.52829 2.77346L4.03915 2.20492L3.55001 1.63637L3.29348 1.85708L3.78262 2.42562ZM4.03915 2.20492L4.52829 2.77346C4.67199 2.64983 4.82149 2.53915 4.97687 2.44098L4.57626 1.80694L4.17564 1.1729C3.95692 1.3111 3.74835 1.46574 3.55001 1.63637L4.03915 2.20492ZM4.57626 1.80694L4.97687 2.44098L5.25744 2.2637L4.85683 1.62966L4.45622 0.995617L4.17564 1.1729L4.57626 1.80694ZM4.85683 1.62966L5.25744 2.2637L5.53802 2.08642L5.13741 1.45238L4.7368 0.818339L4.45622 0.995617L4.85683 1.62966ZM5.13741 1.45238L5.53802 2.08642C5.68376 1.99434 5.83879 1.91614 6.00393 1.85189L5.73197 1.15293L5.46002 0.453977C5.2065 0.552617 4.96516 0.674049 4.7368 0.818339L5.13741 1.45238ZM5.73197 1.15293L6.00393 1.85189L6.31792 1.72972L6.04596 1.03076L5.774 0.331806L5.46002 0.453977L5.73197 1.15293ZM6.04596 1.03076L6.31792 1.72972L6.63191 1.60755L6.35995 0.90859L6.08799 0.209635L5.774 0.331806L6.04596 1.03076ZM6.35995 0.90859L6.63191 1.60755C6.76178 1.55701 6.89675 1.52913 7.04054 1.52414L7.0145 0.774588L6.98846 0.0250398C6.67817 0.0358197 6.37677 0.0972719 6.08799 0.209635L6.35995 0.90859ZM7.0145 0.774588L7.04054 1.52414L7.3811 1.5123L7.35506 0.762756L7.32902 0.0132083L6.98846 0.0250398L7.0145 0.774588ZM7.35506 0.762756L7.3811 1.5123L7.72165 1.50047L7.69561 0.750925L7.66957 0.00137699L7.32902 0.0132083L7.35506 0.762756ZM7.69561 0.750925L7.72165 1.50047C7.85921 1.49569 7.98915 1.51486 8.11597 1.55771L8.35605 0.847179L8.59614 0.136644C8.29645 0.0353812 7.98609 -0.00961935 7.66957 0.00137699L7.69561 0.750925ZM8.35605 0.847179L8.11597 1.55771L8.43586 1.6658L8.67594 0.955265L8.91602 0.24473L8.59614 0.136644L8.35605 0.847179ZM8.67594 0.955265L8.43586 1.6658L8.75574 1.77389L8.99582 1.06335L9.23591 0.352816L8.91602 0.24473L8.67594 0.955265ZM8.99582 1.06335L8.75574 1.77389C8.94422 1.83757 9.1283 1.91073 9.30809 1.99336L9.62131 1.3119L9.93453 0.630436C9.70685 0.525787 9.47394 0.433244 9.23591 0.352816L8.99582 1.06335ZM9.62131 1.3119L9.30809 1.99336L9.61369 2.13383L9.92691 1.45236L10.2401 0.7709L9.93453 0.630436L9.62131 1.3119ZM9.92691 1.45236L9.61369 2.13383L9.9193 2.27429L10.2325 1.59283L10.5457 0.911364L10.2401 0.7709L9.92691 1.45236ZM10.2325 1.59283L9.9193 2.27429C10.0263 2.32349 10.1172 2.39115 10.197 2.48228L10.7613 1.98826L11.3256 1.49424C11.1078 1.24542 10.8462 1.04945 10.5457 0.911364L10.2325 1.59283ZM10.7613 1.98826L10.197 2.48228L10.4202 2.73725L10.9845 2.24323L11.5488 1.74921L11.3256 1.49424L10.7613 1.98826ZM10.9845 2.24323L10.4202 2.73725L10.6434 2.99222L11.2078 2.4982L11.7721 2.00418L11.5488 1.74921L10.9845 2.24323ZM11.2078 2.4982L10.6434 2.99222C10.7523 3.11661 10.8441 3.2514 10.9196 3.39764L11.5861 3.05362L12.2525 2.7096C12.1212 2.45523 11.9608 2.21974 11.7721 2.00418L11.2078 2.4982ZM11.5861 3.05362L10.9196 3.39764L11.0747 3.69809L11.7411 3.35408L12.4076 3.01006L12.2525 2.7096L11.5861 3.05362ZM11.7411 3.35408L11.0747 3.69809L11.2298 3.99855L11.8962 3.65453L12.5627 3.31052L12.4076 3.01006L11.7411 3.35408ZM11.8962 3.65453L11.2298 3.99855C11.3102 4.15425 11.3738 4.31554 11.4211 4.48307L12.1429 4.27924L12.8647 4.07542C12.7899 3.81061 12.6891 3.55541 12.5627 3.31052L11.8962 3.65453ZM12.1429 4.27924L11.4211 4.48307L11.5127 4.80733L12.2345 4.6035L12.9562 4.39967L12.8647 4.07542L12.1429 4.27924ZM12.2345 4.6035L11.5127 4.80733L11.6043 5.13159L12.326 4.92776L13.0478 4.72393L12.9562 4.39967L12.2345 4.6035ZM12.326 4.92776L11.6043 5.13159C11.6612 5.33305 11.7119 5.53621 11.7565 5.74111L12.4893 5.58171L13.2222 5.42231C13.1711 5.18762 13.113 4.95482 13.0478 4.72393L12.326 4.92776ZM12.4893 5.58171L11.7565 5.74111L11.8282 6.07081L12.561 5.91141L13.2939 5.75201L13.2222 5.42231L12.4893 5.58171ZM12.561 5.91141L11.8282 6.07081L11.8999 6.4005L12.6327 6.2411L13.3656 6.0817L13.2939 5.75201L12.561 5.91141ZM12.6327 6.2411L11.8999 6.4005C11.9399 6.58464 11.9664 6.77072 11.9793 6.95901L12.7275 6.90773L13.4758 6.85645C13.4579 6.59549 13.4212 6.33715 13.3656 6.0817L12.6327 6.2411ZM12.7275 6.90773L11.9793 6.95901L12.0024 7.29594L12.7506 7.24466L13.4989 7.19338L13.4758 6.85645L12.7275 6.90773ZM12.7506 7.24466L12.0024 7.29594L12.0255 7.63287L12.7737 7.58159L13.522 7.53031L13.4989 7.19338L12.7506 7.24466ZM12.7737 7.58159L12.0255 7.63287C12.0412 7.8622 12.0591 8.0915 12.0791 8.32078L12.8263 8.25541L13.5734 8.19004C13.5542 7.97014 13.537 7.75023 13.522 7.53031L12.7737 7.58159ZM12.8263 8.25541L12.0791 8.32078L12.1086 8.65767L12.8558 8.5923L13.6029 8.52693L13.5734 8.19004L12.8263 8.25541ZM12.8558 8.5923L12.1086 8.65767L12.1381 8.99456L12.8852 8.92919L13.6324 8.86382L13.6029 8.52693L12.8558 8.5923ZM12.8852 8.92919L12.1381 8.99456C12.1556 9.19483 12.1633 9.39543 12.1612 9.59642L12.9112 9.6042L13.6612 9.61198C13.6638 9.36215 13.6542 9.11274 13.6324 8.86382L12.8852 8.92919ZM12.9112 9.6042L12.1612 9.59642L12.1577 9.93454L12.9077 9.94232L13.6577 9.9501L13.6612 9.61198L12.9112 9.6042ZM12.9077 9.94232L12.1577 9.93454L12.1542 10.2727L12.9042 10.2804L13.6542 10.2882L13.6577 9.9501L12.9077 9.94232ZM12.9042 10.2804L12.1542 10.2727C12.1521 10.4749 12.1407 10.6766 12.1199 10.8778L12.8659 10.955L13.6119 11.0322C13.6375 10.7848 13.6516 10.5368 13.6542 10.2882L12.9042 10.2804ZM12.8659 10.955L12.1199 10.8778L12.085 11.2142L12.8311 11.2914L13.5771 11.3686L13.6119 11.0322L12.8659 10.955ZM12.8311 11.2914L12.085 11.2142L12.0502 11.5506L12.7963 11.6278L13.5423 11.705L13.5771 11.3686L12.8311 11.2914ZM12.7963 11.6278L12.0502 11.5506C12.0276 11.7698 12.0139 11.9037 12.011 11.9365L12.7582 12.0013L13.5054 12.0661C13.5054 12.0667 13.5055 12.0649 13.5061 12.0592C13.5066 12.054 13.5073 12.0471 13.5081 12.0382C13.5099 12.0204 13.5123 11.9962 13.5155 11.9654C13.5218 11.9037 13.5307 11.817 13.5423 11.705L12.7963 11.6278ZM12.7582 12.0013L12.011 11.9365L12.0078 11.9736L12.755 12.0384L13.5022 12.1032L13.5054 12.0661L12.7582 12.0013ZM12.755 12.0384L12.0078 11.9736L12.0046 12.0107L12.7518 12.0755L13.499 12.1403L13.5022 12.1032L12.755 12.0384ZM12.7518 12.0755L12.0046 12.0107C12.0054 12.002 12.0056 12.0017 12.0031 12.0225C12.0011 12.0386 11.9982 12.0615 11.9944 12.0918C11.9866 12.1521 11.9755 12.2376 11.9607 12.3488L12.7042 12.4473L13.4477 12.5459C13.4754 12.3367 13.4949 12.1871 13.499 12.1403L12.7518 12.0755ZM12.7042 12.4473L11.9607 12.3488L11.9163 12.6836L12.6598 12.7821L13.4033 12.8806L13.4477 12.5459L12.7042 12.4473Z" fill="#0A00C1"/>
</svg>
