<svg width="14" height="23" viewBox="0 0 14 23" fill="none" xmlns="http://www.w3.org/2000/svg">
<path d="M0.193201 4.93251C-0.0841555 5.24016 -0.0596002 5.7144 0.248046 5.99175C0.555693 6.26911 1.02993 6.24455 1.30729 5.93691L0.750244 5.43471L0.193201 4.93251ZM0.817204 5.36044L1.37425 5.86263L1.4243 5.80712L1.4624 5.74282L0.817204 5.36044ZM1.13508 4.82408L0.489879 4.4417L1.13508 4.82408ZM1.6284 4.00241L2.26727 4.39528L1.6284 4.00241ZM1.80384 3.71711L1.16497 3.32424L1.80384 3.71711ZM1.97929 3.4318L1.34042 3.03894L1.97929 3.4318ZM2.37384 2.89031L1.80387 2.40284L2.37384 2.89031ZM3.32499 1.95945L2.96238 1.30294L3.32499 1.95945ZM4.79439 1.15282L4.43606 0.493962L4.79439 1.15282ZM5.08834 0.992954L4.73001 0.334093L5.08834 0.992954ZM7.69764 1.01175L7.4877 1.73177L7.69764 1.01175ZM8.35615 1.17726L8.20009 1.91085L8.35615 1.17726ZM9.02834 1.32026L9.1844 0.586673L9.02834 1.32026ZM9.61601 1.62697L10.1282 1.07914L9.61601 1.62697ZM9.86759 1.86219L9.35536 2.41003L9.86759 1.86219ZM10.1192 2.09741L9.60693 2.64525L10.1192 2.09741ZM10.5184 2.63701L11.1932 2.30955L10.5184 2.63701ZM10.8139 3.24576L10.1391 3.57322L10.8139 3.24576ZM11.1018 3.85934L11.7849 3.54954L11.1018 3.85934ZM11.3823 4.47773L10.6993 4.78753L11.3823 4.47773ZM11.5089 5.12755L10.7595 5.09738L11.5089 5.12755ZM11.4951 5.46816L10.7458 5.43799V5.43799L11.4951 5.46816ZM11.4814 5.80878L12.2308 5.83894L11.4814 5.80878ZM11.3831 6.47814L12.1095 6.66504L11.3831 6.47814ZM11.2985 6.80689L10.5722 6.61999L11.2985 6.80689ZM11.2139 7.13564L10.4876 6.94874L11.2139 7.13564ZM10.9598 7.76103L10.3086 7.38891L10.9598 7.76103ZM10.6208 8.35432L9.9696 7.98219L10.6208 8.35432ZM10.1973 8.87798L9.69744 8.31886L10.1973 8.87798ZM9.9434 9.105L10.4433 9.66413L9.9434 9.105ZM9.68948 9.33203L10.1894 9.89115L9.68948 9.33203ZM9.13787 9.71796L9.49107 10.3796L9.13787 9.71796ZM8.84018 9.87688L9.19339 10.5385L8.84018 9.87688ZM8.5425 10.0358L8.1893 9.37417L8.5425 10.0358ZM7.95695 10.3696L7.56748 9.72868L7.95695 10.3696ZM7.66909 10.5445L8.05856 11.1855L7.66909 10.5445ZM7.38122 10.7195L7.77069 11.3604L7.38122 10.7195ZM6.76825 10.9831L6.57081 10.2596L6.76825 10.9831ZM6.44314 11.0718L6.2457 10.3483L6.44314 11.0718ZM6.11804 11.1605L6.31548 11.8841L6.11804 11.1605ZM4.85085 11.6352L4.56653 10.9412L4.85085 11.6352ZM2.99615 11.8414L3.13972 12.5775L2.99615 11.8414ZM2.81319 11.877L2.66962 11.1409L2.81319 11.877ZM2.63024 11.9127L2.48667 11.1766L2.63024 11.9127ZM2.77975 11.8856L2.64055 11.1486L2.77975 11.8856ZM3.44469 11.76L3.58389 12.497L3.44469 11.76ZM4.09541 11.5784L4.35784 12.2809L4.09541 11.5784ZM4.73191 11.3406L4.99433 12.0432L4.73191 11.3406ZM5.38706 11.1857L5.46684 11.9315L5.38706 11.1857ZM6.06087 11.1136L5.9811 10.3679L6.06087 11.1136ZM6.73296 11.0722L6.72093 10.3223L6.73296 11.0722ZM7.40331 11.0615L7.39129 10.3116L7.40331 11.0615ZM8.07605 11.0863L8.00923 11.8333L8.07605 11.0863ZM8.75115 11.1467L8.81797 10.3997L8.75115 11.1467ZM9.3834 11.3449L9.7549 10.6934L9.3834 11.3449ZM9.97279 11.681L9.60129 12.3325L9.97279 11.681ZM10.496 12.0935L11.0439 11.5814L10.496 12.0935ZM10.953 12.5825L11.5009 12.0703L10.953 12.5825ZM12.1629 14.1571L12.8877 13.9645L12.1629 14.1571ZM12.2492 14.4818L12.974 14.2892L12.2492 14.4818ZM12.3355 14.8066L11.6106 14.9992L12.3355 14.8066ZM12.5311 15.4547L13.2416 15.2146L12.5311 15.4547ZM12.7497 16.1016L12.0392 16.3417L12.7497 16.1016ZM12.8175 16.7668L12.073 16.6765L12.8175 16.7668ZM12.7346 17.4505L13.4791 17.5409L12.7346 17.4505ZM12.5222 18.088L13.1716 18.4632L12.5222 18.088ZM12.1805 18.6794L12.8299 19.0546L12.1805 18.6794ZM11.8155 19.2531L11.2006 18.8236L11.8155 19.2531ZM11.427 19.8092L12.0419 20.2387L11.427 19.8092ZM10.9577 20.2904L10.5122 19.6871L10.9577 20.2904ZM10.4076 20.6967L10.8532 21.3L10.4076 20.6967ZM9.80029 20.9789L9.62664 20.2493L9.80029 20.9789ZM9.13574 21.137L9.30938 21.8667L9.13574 21.137ZM8.48516 21.3283L8.23579 20.621L8.48516 21.3283ZM8.16686 21.4405L8.41623 22.1479L8.16686 21.4405ZM7.84856 21.5528L8.09793 22.2601L7.84856 21.5528ZM7.1933 21.6976L7.12091 20.9511L7.1933 21.6976ZM6.85633 21.7303L6.92871 22.4768L6.85633 21.7303ZM6.51937 21.763L6.44699 21.0165L6.51937 21.763ZM5.85302 21.7173L6.02666 20.9876L5.85302 21.7173ZM5.19425 21.5605L5.36789 20.8309L5.19425 21.5605ZM4.53535 21.417L4.68066 20.6812L4.53535 21.417ZM3.87632 21.2869L4.02164 20.5511L3.87632 21.2869ZM3.24395 21.0739L2.91493 21.7479L3.24395 21.0739ZM2.94108 20.9261L3.2701 20.2521L2.94108 20.9261ZM2.06356 20.4342L1.62466 21.0424L2.06356 20.4342ZM1.12368 19.7628L0.707561 20.3868L1.12368 19.7628ZM0.999203 19.6798L0.52394 20.26L0.552436 20.2833L0.583082 20.3037L0.999203 19.6798ZM0.842784 19.5516L1.31805 18.9714L1.23107 18.9002L1.12702 18.8576L0.842784 19.5516ZM1.03448 18.8197C0.651169 18.6627 0.213174 18.8462 0.0561923 19.2295C-0.100789 19.6128 0.0826904 20.0508 0.466005 20.2078L0.750244 19.5137L1.03448 18.8197ZM0.750244 5.43471L1.30729 5.93691L1.37425 5.86263L0.817204 5.36044L0.26016 4.85824L0.193201 4.93251L0.750244 5.43471ZM0.817204 5.36044L1.4624 5.74282L1.78028 5.20646L1.13508 4.82408L0.489879 4.4417L0.172003 4.97805L0.817204 5.36044ZM1.13508 4.82408L1.78028 5.20646C1.99156 4.84997 2.15354 4.58023 2.26727 4.39528L1.6284 4.00241L0.989529 3.60955C0.869334 3.80501 0.702435 4.08304 0.489879 4.4417L1.13508 4.82408ZM1.6284 4.00241L2.26727 4.39528L2.44272 4.10997L1.80384 3.71711L1.16497 3.32424L0.989529 3.60955L1.6284 4.00241ZM1.80384 3.71711L2.44272 4.10997L2.61816 3.82467L1.97929 3.4318L1.34042 3.03894L1.16497 3.32424L1.80384 3.71711ZM1.97929 3.4318L2.61816 3.82467C2.71452 3.66796 2.82297 3.51908 2.94381 3.37779L2.37384 2.89031L1.80387 2.40284C1.63257 2.60313 1.47798 2.81524 1.34042 3.03894L1.97929 3.4318ZM2.37384 2.89031L2.94381 3.37779L3.16292 3.1216L2.59295 2.63412L2.02297 2.14665L1.80387 2.40284L2.37384 2.89031ZM2.59295 2.63412L3.16292 3.1216L3.38203 2.86541L2.81205 2.37794L2.24208 1.89046L2.02297 2.14665L2.59295 2.63412ZM2.81205 2.37794L3.38203 2.86541C3.46992 2.76264 3.57076 2.68051 3.68761 2.61596L3.32499 1.95945L2.96238 1.30294C2.68745 1.45479 2.44633 1.65165 2.24208 1.89046L2.81205 2.37794ZM3.32499 1.95945L3.68761 2.61596L3.98145 2.45367L3.61883 1.79715L3.25621 1.14064L2.96238 1.30294L3.32499 1.95945ZM3.61883 1.79715L3.98145 2.45367L4.27528 2.29137L3.91266 1.63486L3.55004 0.978345L3.25621 1.14064L3.61883 1.79715ZM3.91266 1.63486L4.27528 2.29137C4.46975 2.18396 4.66425 2.07735 4.85878 1.97155L4.50045 1.31269L4.14211 0.65383C3.94471 0.76119 3.74736 0.869362 3.55004 0.978345L3.91266 1.63486ZM4.50045 1.31269L4.85878 1.97155L5.15273 1.81168L4.79439 1.15282L4.43606 0.493962L4.14211 0.65383L4.50045 1.31269ZM4.79439 1.15282L5.15273 1.81168L5.44667 1.65181L5.08834 0.992954L4.73001 0.334093L4.43606 0.493962L4.79439 1.15282ZM5.08834 0.992954L5.44667 1.65181C5.54873 1.59631 5.65634 1.56428 5.77665 1.55505L5.71932 0.807246L5.66199 0.0594409C5.33292 0.0846692 5.01988 0.17644 4.73001 0.334093L5.08834 0.992954ZM5.71932 0.807246L5.77665 1.55505L6.11368 1.52921L6.05635 0.781407L5.99901 0.0336018L5.66199 0.0594409L5.71932 0.807246ZM6.05635 0.781407L6.11368 1.52921L6.45071 1.50337L6.39338 0.755568L6.33604 0.00776261L5.99901 0.0336018L6.05635 0.781407ZM6.39338 0.755568L6.45071 1.50337C6.58595 1.493 6.7152 1.50653 6.84288 1.54375L7.05282 0.823738L7.26276 0.103721C6.96055 0.0156032 6.65017 -0.0163206 6.33604 0.00776261L6.39338 0.755568ZM7.05282 0.823738L6.84288 1.54375L7.16529 1.63776L7.37523 0.917746L7.58517 0.197729L7.26276 0.103721L7.05282 0.823738ZM7.37523 0.917746L7.16529 1.63776L7.4877 1.73177L7.69764 1.01175L7.90758 0.291738L7.58517 0.197729L7.37523 0.917746ZM7.69764 1.01175L7.4877 1.73177C7.72083 1.79975 7.95832 1.85941 8.20009 1.91085L8.35615 1.17726L8.51221 0.443677C8.30585 0.399778 8.10433 0.349106 7.90758 0.291738L7.69764 1.01175ZM8.35615 1.17726L8.20009 1.91085L8.53619 1.98234L8.69225 1.24876L8.8483 0.515175L8.51221 0.443677L8.35615 1.17726ZM8.69225 1.24876L8.53619 1.98234L8.87229 2.05384L9.02834 1.32026L9.1844 0.586673L8.8483 0.515175L8.69225 1.24876ZM9.02834 1.32026L8.87229 2.05384C8.96262 2.07306 9.03546 2.11092 9.10379 2.17481L9.61601 1.62697L10.1282 1.07914C9.86114 0.829401 9.54219 0.662786 9.1844 0.586673L9.02834 1.32026ZM9.61601 1.62697L9.10379 2.17481L9.35536 2.41003L9.86759 1.86219L10.3798 1.31435L10.1282 1.07914L9.61601 1.62697ZM9.86759 1.86219L9.35536 2.41003L9.60693 2.64525L10.1192 2.09741L10.6314 1.54957L10.3798 1.31435L9.86759 1.86219ZM10.1192 2.09741L9.60693 2.64525C9.70865 2.74035 9.78615 2.84586 9.84371 2.96447L10.5184 2.63701L11.1932 2.30955C11.0538 2.02231 10.8651 1.7681 10.6314 1.54957L10.1192 2.09741ZM10.5184 2.63701L9.84371 2.96447L9.99143 3.26884L10.6662 2.94138L11.3409 2.61392L11.1932 2.30955L10.5184 2.63701ZM10.6662 2.94138L9.99143 3.26884L10.1391 3.57322L10.8139 3.24576L11.4886 2.9183L11.3409 2.61392L10.6662 2.94138ZM10.8139 3.24576L10.1391 3.57322C10.2348 3.77027 10.328 3.9689 10.4188 4.16913L11.1018 3.85934L11.7849 3.54954C11.6887 3.33751 11.59 3.12709 11.4886 2.9183L10.8139 3.24576ZM11.1018 3.85934L10.4188 4.16913L10.5591 4.47833L11.2421 4.16854L11.9251 3.85874L11.7849 3.54954L11.1018 3.85934ZM11.2421 4.16854L10.5591 4.47833L10.6993 4.78753L11.3823 4.47773L12.0654 4.16794L11.9251 3.85874L11.2421 4.16854ZM11.3823 4.47773L10.6993 4.78753C10.7442 4.88662 10.7639 4.98676 10.7595 5.09738L11.5089 5.12755L12.2582 5.15771C12.2721 4.81418 12.2074 4.48111 12.0654 4.16794L11.3823 4.47773ZM11.5089 5.12755L10.7595 5.09738L10.7458 5.43799L11.4951 5.46816L12.2445 5.49833L12.2582 5.15771L11.5089 5.12755ZM11.4951 5.46816L10.7458 5.43799L10.732 5.77861L11.4814 5.80878L12.2308 5.83894L12.2445 5.49833L11.4951 5.46816ZM11.4814 5.80878L10.732 5.77861C10.725 5.953 10.6999 6.12357 10.6568 6.29124L11.3831 6.47814L12.1095 6.66504C12.1791 6.39437 12.2196 6.11871 12.2308 5.83894L11.4814 5.80878ZM11.3831 6.47814L10.6568 6.29124L10.5722 6.61999L11.2985 6.80689L12.0249 6.99379L12.1095 6.66504L11.3831 6.47814ZM11.2985 6.80689L10.5722 6.61999L10.4876 6.94874L11.2139 7.13564L11.9403 7.32254L12.0249 6.99379L11.2985 6.80689ZM11.2139 7.13564L10.4876 6.94874C10.448 7.10266 10.3887 7.24887 10.3086 7.38891L10.9598 7.76103L11.611 8.13316C11.757 7.87767 11.8671 7.60695 11.9403 7.32254L11.2139 7.13564ZM10.9598 7.76103L10.3086 7.38891L10.1391 7.68555L10.7903 8.05767L11.4415 8.4298L11.611 8.13316L10.9598 7.76103ZM10.7903 8.05767L10.1391 7.68555L9.9696 7.98219L10.6208 8.35432L11.2719 8.72644L11.4415 8.4298L10.7903 8.05767ZM10.6208 8.35432L9.9696 7.98219C9.8965 8.11011 9.80638 8.22147 9.69744 8.31886L10.1973 8.87798L10.6972 9.4371C10.9268 9.2318 11.119 8.99405 11.2719 8.72644L10.6208 8.35432ZM10.1973 8.87798L9.69744 8.31886L9.44352 8.54588L9.9434 9.105L10.4433 9.66413L10.6972 9.4371L10.1973 8.87798ZM9.9434 9.105L9.44352 8.54588L9.18959 8.7729L9.68948 9.33203L10.1894 9.89115L10.4433 9.66413L9.9434 9.105ZM9.68948 9.33203L9.18959 8.7729C9.06451 8.88473 8.92981 8.97885 8.78466 9.05634L9.13787 9.71796L9.49107 10.3796C9.74283 10.2452 9.97587 10.082 10.1894 9.89115L9.68948 9.33203ZM9.13787 9.71796L8.78466 9.05634L8.48698 9.21526L8.84018 9.87688L9.19339 10.5385L9.49107 10.3796L9.13787 9.71796ZM8.84018 9.87688L8.48698 9.21526L8.1893 9.37417L8.5425 10.0358L8.8957 10.6974L9.19339 10.5385L8.84018 9.87688ZM8.5425 10.0358L8.1893 9.37417C7.97858 9.48666 7.77131 9.60483 7.56748 9.72868L7.95695 10.3696L8.34642 11.0106C8.52641 10.9012 8.7095 10.7968 8.8957 10.6974L8.5425 10.0358ZM7.95695 10.3696L7.56748 9.72868L7.27962 9.9036L7.66909 10.5445L8.05856 11.1855L8.34642 11.0106L7.95695 10.3696ZM7.66909 10.5445L7.27962 9.9036L6.99176 10.0785L7.38122 10.7195L7.77069 11.3604L8.05856 11.1855L7.66909 10.5445ZM7.38122 10.7195L6.99176 10.0785C6.85971 10.1588 6.72003 10.2188 6.57081 10.2596L6.76825 10.9831L6.9657 11.7066C7.24995 11.6291 7.51892 11.5134 7.77069 11.3604L7.38122 10.7195ZM6.76825 10.9831L6.57081 10.2596L6.2457 10.3483L6.44314 11.0718L6.64059 11.7954L6.9657 11.7066L6.76825 10.9831ZM6.44314 11.0718L6.2457 10.3483L5.92059 10.437L6.11804 11.1605L6.31548 11.8841L6.64059 11.7954L6.44314 11.0718ZM6.11804 11.1605L5.92059 10.437C5.67411 10.5043 5.43206 10.5866 5.19458 10.6839L5.4789 11.3779L5.76323 12.0719C5.94445 11.9977 6.12848 11.9351 6.31548 11.8841L6.11804 11.1605ZM5.4789 11.3779L5.19458 10.6839L4.88055 10.8125L5.16488 11.5066L5.4492 12.2006L5.76323 12.0719L5.4789 11.3779ZM5.16488 11.5066L4.88055 10.8125L4.56653 10.9412L4.85085 11.6352L5.13518 12.3292L5.4492 12.2006L5.16488 11.5066ZM4.85085 11.6352L4.56653 10.9412C4.44028 10.9929 4.31095 11.0205 4.1743 11.0247L4.1974 11.7743L4.22049 12.524C4.53642 12.5142 4.84272 12.449 5.13518 12.3292L4.85085 11.6352ZM4.1974 11.7743L4.1743 11.0247L3.83487 11.0351L3.85797 11.7848L3.88106 12.5344L4.22049 12.524L4.1974 11.7743ZM3.85797 11.7848L3.83487 11.0351L3.49544 11.0456L3.51854 11.7952L3.54163 12.5449L3.88106 12.5344L3.85797 11.7848ZM3.51854 11.7952L3.49544 11.0456C3.25582 11.053 3.03414 11.0698 2.85258 11.1052L2.99615 11.8414L3.13972 12.5775C3.2021 12.5653 3.32868 12.5514 3.54163 12.5449L3.51854 11.7952ZM2.99615 11.8414L2.85258 11.1052L2.66962 11.1409L2.81319 11.877L2.95676 12.6132L3.13972 12.5775L2.99615 11.8414ZM2.81319 11.877L2.66962 11.1409L2.48667 11.1766L2.63024 11.9127L2.77381 12.6489L2.95676 12.6132L2.81319 11.877ZM2.63024 11.9127L2.48667 11.1766C2.45702 11.1824 2.43372 11.187 2.42072 11.1896C2.41857 11.1901 2.41071 11.1917 2.40212 11.1936C2.39964 11.1941 2.39454 11.1953 2.38818 11.1968C2.38752 11.197 2.36554 11.2022 2.3389 11.2106C2.33094 11.2132 2.31554 11.2182 2.29651 11.2255C2.28668 11.2292 2.23579 11.2484 2.17678 11.2841C2.14105 11.3072 2.04866 11.382 1.996 11.4374C1.90928 11.5621 1.81571 11.9506 1.86593 12.1966C1.9664 12.3771 2.20154 12.5815 2.29809 12.6264C2.35098 12.6444 2.43742 12.6647 2.47004 12.6696C2.52615 12.6768 2.57048 12.6757 2.58165 12.6755C2.59981 12.6751 2.61427 12.6741 2.6221 12.6735C2.63797 12.6723 2.65038 12.6708 2.65542 12.6702C2.66668 12.6689 2.67549 12.6675 2.67834 12.6671C2.68239 12.6665 2.68571 12.666 2.68774 12.6656C2.69182 12.665 2.6953 12.6644 2.69737 12.664C2.70173 12.6632 2.7062 12.6624 2.70997 12.6618C2.73823 12.6566 2.80932 12.6433 2.91895 12.6226L2.77975 11.8856L2.64055 11.1486C2.52853 11.1698 2.46388 11.1819 2.4423 11.1858C2.42012 11.1898 2.44789 11.1844 2.47558 11.1811C2.48051 11.1805 2.49283 11.179 2.50865 11.1778C2.51644 11.1772 2.53087 11.1762 2.54901 11.1758C2.56015 11.1756 2.60447 11.1745 2.66057 11.1817C2.69318 11.1866 2.77962 11.2069 2.83251 11.2249C2.92905 11.2698 3.16419 11.4742 3.26466 11.6547C3.31488 11.9007 3.22131 12.2892 3.13459 12.4139C3.08193 12.4693 2.98954 12.5441 2.95382 12.5672C2.89482 12.6029 2.84394 12.622 2.83413 12.6258C2.81512 12.6331 2.79975 12.6381 2.79182 12.6406C2.7653 12.649 2.74352 12.6541 2.74315 12.6542C2.73708 12.6557 2.73235 12.6568 2.73033 12.6572C2.72356 12.6588 2.71887 12.6597 2.72123 12.6592C2.72626 12.6582 2.74247 12.655 2.77381 12.6489L2.63024 11.9127ZM2.77975 11.8856L2.91895 12.6226L3.25142 12.5598L3.11222 11.8228L2.97302 11.0858L2.64055 11.1486L2.77975 11.8856ZM3.11222 11.8228L3.25142 12.5598L3.58389 12.497L3.44469 11.76L3.30549 11.023L2.97302 11.0858L3.11222 11.8228ZM3.44469 11.76L3.58389 12.497C3.84769 12.4472 4.10581 12.3751 4.35784 12.2809L4.09541 11.5784L3.83299 10.8758C3.66068 10.9401 3.48499 10.9891 3.30549 11.023L3.44469 11.76ZM4.09541 11.5784L4.35784 12.2809L4.67608 12.1621L4.41366 11.4595L4.15124 10.7569L3.83299 10.8758L4.09541 11.5784ZM4.41366 11.4595L4.67608 12.1621L4.99433 12.0432L4.73191 11.3406L4.46949 10.638L4.15124 10.7569L4.41366 11.4595ZM4.73191 11.3406L4.99433 12.0432C5.14782 11.9859 5.30485 11.9488 5.46684 11.9315L5.38706 11.1857L5.30729 10.44C5.02007 10.4707 4.74033 10.5369 4.46949 10.638L4.73191 11.3406ZM5.38706 11.1857L5.46684 11.9315L5.80374 11.8954L5.72397 11.1497L5.6442 10.4039L5.30729 10.44L5.38706 11.1857ZM5.72397 11.1497L5.80374 11.8954L6.14064 11.8594L6.06087 11.1136L5.9811 10.3679L5.6442 10.4039L5.72397 11.1497ZM6.06087 11.1136L6.14064 11.8594C6.34298 11.8377 6.5444 11.8253 6.74498 11.8221L6.73296 11.0722L6.72093 10.3223C6.4746 10.3263 6.22797 10.3415 5.9811 10.3679L6.06087 11.1136ZM6.73296 11.0722L6.74498 11.8221L7.08016 11.8168L7.06814 11.0668L7.05611 10.3169L6.72093 10.3223L6.73296 11.0722ZM7.06814 11.0668L7.08016 11.8168L7.41534 11.8114L7.40331 11.0615L7.39129 10.3116L7.05611 10.3169L7.06814 11.0668ZM7.40331 11.0615L7.41534 11.8114C7.61219 11.8082 7.81012 11.8155 8.00923 11.8333L8.07605 11.0863L8.14286 10.3393C7.8919 10.3168 7.64134 10.3076 7.39129 10.3116L7.40331 11.0615ZM8.07605 11.0863L8.00923 11.8333L8.34678 11.8635L8.4136 11.1165L8.48042 10.3695L8.14286 10.3393L8.07605 11.0863ZM8.4136 11.1165L8.34678 11.8635L8.68434 11.8937L8.75115 11.1467L8.81797 10.3997L8.48042 10.3695L8.4136 11.1165ZM8.75115 11.1467L8.68434 11.8937C8.80202 11.9042 8.90887 11.9377 9.0119 11.9964L9.3834 11.3449L9.7549 10.6934C9.46501 10.5281 9.15035 10.4294 8.81797 10.3997L8.75115 11.1467ZM9.3834 11.3449L9.0119 11.9964L9.30659 12.1645L9.67809 11.5129L10.0496 10.8614L9.7549 10.6934L9.3834 11.3449ZM9.67809 11.5129L9.30659 12.1645L9.60129 12.3325L9.97279 11.681L10.3443 11.0294L10.0496 10.8614L9.67809 11.5129ZM9.97279 11.681L9.60129 12.3325C9.73318 12.4077 9.8479 12.4985 9.94806 12.6056L10.496 12.0935L11.0439 11.5814C10.8394 11.3625 10.6053 11.1783 10.3443 11.0294L9.97279 11.681ZM10.496 12.0935L9.94806 12.6056L10.1766 12.8501L10.7245 12.338L11.2724 11.8259L11.0439 11.5814L10.496 12.0935ZM10.7245 12.338L10.1766 12.8501L10.4051 13.0946L10.953 12.5825L11.5009 12.0703L11.2724 11.8259L10.7245 12.338ZM10.953 12.5825L10.4051 13.0946C10.5533 13.2531 10.6999 13.4139 10.8451 13.577L11.4053 13.0783L11.9655 12.5796C11.8123 12.4075 11.6574 12.2378 11.5009 12.0703L10.953 12.5825ZM11.4053 13.0783L10.8451 13.577L11.0688 13.8283L11.629 13.3297L12.1892 12.831L11.9655 12.5796L11.4053 13.0783ZM11.629 13.3297L11.0688 13.8283L11.2926 14.0797L11.8528 13.581L12.413 13.0823L12.1892 12.831L11.629 13.3297ZM11.8528 13.581L11.2926 14.0797C11.3638 14.1597 11.4107 14.2469 11.438 14.3497L12.1629 14.1571L12.8877 13.9645C12.7999 13.6343 12.6401 13.3375 12.413 13.0823L11.8528 13.581ZM12.1629 14.1571L11.438 14.3497L11.5243 14.6745L12.2492 14.4818L12.974 14.2892L12.8877 13.9645L12.1629 14.1571ZM12.2492 14.4818L11.5243 14.6745L11.6106 14.9992L12.3355 14.8066L13.0603 14.6139L12.974 14.2892L12.2492 14.4818ZM12.3355 14.8066L11.6106 14.9992C11.6725 15.232 11.7425 15.4639 11.8206 15.6949L12.5311 15.4547L13.2416 15.2146C13.1739 15.0144 13.1135 14.8142 13.0603 14.6139L12.3355 14.8066ZM12.5311 15.4547L11.8206 15.6949L11.9299 16.0183L12.6404 15.7782L13.3509 15.538L13.2416 15.2146L12.5311 15.4547ZM12.6404 15.7782L11.9299 16.0183L12.0392 16.3417L12.7497 16.1016L13.4602 15.8614L13.3509 15.538L12.6404 15.7782ZM12.7497 16.1016L12.0392 16.3417C12.0759 16.4502 12.0873 16.5589 12.073 16.6765L12.8175 16.7668L13.5621 16.8572C13.6031 16.519 13.5693 16.1842 13.4602 15.8614L12.7497 16.1016ZM12.8175 16.7668L12.073 16.6765L12.0315 17.0183L12.7761 17.1087L13.5206 17.199L13.5621 16.8572L12.8175 16.7668ZM12.7761 17.1087L12.0315 17.0183L11.99 17.3601L12.7346 17.4505L13.4791 17.5409L13.5206 17.199L12.7761 17.1087ZM12.7346 17.4505L11.99 17.3601C11.9745 17.4885 11.9357 17.604 11.8728 17.7128L12.5222 18.088L13.1716 18.4632C13.3366 18.1778 13.4394 17.8683 13.4791 17.5409L12.7346 17.4505ZM12.5222 18.088L11.8728 17.7128L11.702 18.0085L12.3514 18.3837L13.0008 18.7589L13.1716 18.4632L12.5222 18.088ZM12.3514 18.3837L11.702 18.0085L11.5312 18.3042L12.1805 18.6794L12.8299 19.0546L13.0008 18.7589L12.3514 18.3837ZM12.1805 18.6794L11.5312 18.3042C11.4279 18.4828 11.3177 18.656 11.2006 18.8236L11.8155 19.2531L12.4303 19.6826C12.5722 19.4795 12.7054 19.2702 12.8299 19.0546L12.1805 18.6794ZM11.8155 19.2531L11.2006 18.8236L11.0064 19.1017L11.6212 19.5312L12.2361 19.9607L12.4303 19.6826L11.8155 19.2531ZM11.6212 19.5312L11.0064 19.1017L10.8122 19.3797L11.427 19.8092L12.0419 20.2387L12.2361 19.9607L11.6212 19.5312ZM11.427 19.8092L10.8122 19.3797C10.7297 19.4978 10.6306 19.5996 10.5122 19.6871L10.9577 20.2904L11.4033 20.8937C11.6516 20.7103 11.8654 20.4914 12.0419 20.2387L11.427 19.8092ZM10.9577 20.2904L10.5122 19.6871L10.2371 19.8902L10.6827 20.4935L11.1282 21.0968L11.4033 20.8937L10.9577 20.2904ZM10.6827 20.4935L10.2371 19.8902L9.96206 20.0934L10.4076 20.6967L10.8532 21.3L11.1282 21.0968L10.6827 20.4935ZM10.4076 20.6967L9.96206 20.0934C9.85981 20.1689 9.74983 20.2199 9.62664 20.2493L9.80029 20.9789L9.97393 21.7085C10.2938 21.6324 10.5887 21.4953 10.8532 21.3L10.4076 20.6967ZM9.80029 20.9789L9.62664 20.2493L9.29437 20.3283L9.46801 21.058L9.64166 21.7876L9.97393 21.7085L9.80029 20.9789ZM9.46801 21.058L9.29437 20.3283L8.96209 20.4074L9.13574 21.137L9.30938 21.8667L9.64166 21.7876L9.46801 21.058ZM9.13574 21.137L8.96209 20.4074C8.71527 20.4662 8.47312 20.5373 8.23579 20.621L8.48516 21.3283L8.73453 22.0357C8.9216 21.9697 9.11317 21.9133 9.30938 21.8667L9.13574 21.137ZM8.48516 21.3283L8.23579 20.621L7.91749 20.7332L8.16686 21.4405L8.41623 22.1479L8.73453 22.0357L8.48516 21.3283ZM8.16686 21.4405L7.91749 20.7332L7.59919 20.8454L7.84856 21.5528L8.09793 22.2601L8.41623 22.1479L8.16686 21.4405ZM7.84856 21.5528L7.59919 20.8454C7.44437 20.9 7.28538 20.9352 7.12091 20.9511L7.1933 21.6976L7.26568 22.4441C7.55049 22.4165 7.82835 22.3551 8.09793 22.2601L7.84856 21.5528ZM7.1933 21.6976L7.12091 20.9511L6.78395 20.9838L6.85633 21.7303L6.92871 22.4768L7.26568 22.4441L7.1933 21.6976ZM6.85633 21.7303L6.78395 20.9838L6.44699 21.0165L6.51937 21.763L6.59175 22.5095L6.92871 22.4768L6.85633 21.7303ZM6.51937 21.763L6.44699 21.0165C6.30473 21.0303 6.16575 21.0208 6.02666 20.9876L5.85302 21.7173L5.67938 22.4469C5.97947 22.5183 6.28472 22.5393 6.59175 22.5095L6.51937 21.763ZM5.85302 21.7173L6.02666 20.9876L5.69727 20.9093L5.52363 21.6389L5.34999 22.3685L5.67938 22.4469L5.85302 21.7173ZM5.52363 21.6389L5.69727 20.9093L5.36789 20.8309L5.19425 21.5605L5.02061 22.2901L5.34999 22.3685L5.52363 21.6389ZM5.19425 21.5605L5.36789 20.8309C5.13897 20.7764 4.90989 20.7265 4.68066 20.6812L4.53535 21.417L4.39003 22.1528C4.60015 22.1943 4.81034 22.2401 5.02061 22.2901L5.19425 21.5605ZM4.53535 21.417L4.68066 20.6812L4.35115 20.6162L4.20584 21.3519L4.06052 22.0877L4.39003 22.1528L4.53535 21.417ZM4.20584 21.3519L4.35115 20.6162L4.02164 20.5511L3.87632 21.2869L3.73101 22.0227L4.06052 22.0877L4.20584 21.3519ZM3.87632 21.2869L4.02164 20.5511C3.86583 20.5203 3.71677 20.4702 3.57296 20.4L3.24395 21.0739L2.91493 21.7479C3.17494 21.8749 3.44746 21.9667 3.73101 22.0227L3.87632 21.2869ZM3.24395 21.0739L3.57296 20.4L3.2701 20.2521L2.94108 20.9261L2.61207 21.6001L2.91493 21.7479L3.24395 21.0739ZM2.94108 20.9261L3.2701 20.2521L2.96724 20.1043L2.63822 20.7782L2.30921 21.4522L2.61207 21.6001L2.94108 20.9261ZM2.63822 20.7782L2.96724 20.1043C2.80356 20.0244 2.64879 19.9317 2.50246 19.8261L2.06356 20.4342L1.62466 21.0424C1.84073 21.1984 2.06907 21.335 2.30921 21.4522L2.63822 20.7782ZM2.06356 20.4342L2.50246 19.8261L2.23066 19.6299L1.79176 20.2381L1.35286 20.8463L1.62466 21.0424L2.06356 20.4342ZM1.79176 20.2381L2.23066 19.6299L1.95886 19.4338L1.51996 20.0419L1.08106 20.6501L1.35286 20.8463L1.79176 20.2381ZM1.51996 20.0419L1.95886 19.4338C1.777 19.3025 1.63524 19.2025 1.5398 19.1388L1.12368 19.7628L0.707561 20.3868C0.778096 20.4338 0.900518 20.5198 1.08106 20.6501L1.51996 20.0419ZM1.12368 19.7628L1.5398 19.1388L1.41532 19.0558L0.999203 19.6798L0.583082 20.3037L0.707561 20.3868L1.12368 19.7628ZM0.999203 19.6798L1.47447 19.0996L1.31805 18.9714L0.842784 19.5516L0.367522 20.1318L0.52394 20.26L0.999203 19.6798ZM0.842784 19.5516L1.12702 18.8576L1.03448 18.8197L0.750244 19.5137L0.466005 20.2078L0.558545 20.2457L0.842784 19.5516Z" fill="#0A00C1"/>
</svg>
